<svg width="163" height="26" viewBox="0 0 163 26" fill="none" xmlns="http://www.w3.org/2000/svg">
<path d="M1.16 24.05C0.96 24.05 0.72 23.95 0.44 23.75C0.18 23.57 0.0500002 23.39 0.0500002 23.21C0.0500002 19.77 0.29 16.66 0.77 13.88C1.03 12.38 1.32 10.97 1.64 9.65C1.96 8.31 2.34 7.07 2.78 5.93L3.32 4.49C3.4 4.27 3.54 4.16 3.74 4.16C4.12 4.16 4.31 4.32 4.31 4.64C4.31 4.78 4.2 5.12 3.98 5.66C3.76 6.18 3.47 7 3.11 8.12C1.73 12.34 1.04 17.17 1.04 22.61C1.44 22.29 1.97 21.77 2.63 21.05C3.29 20.33 4.05 19.4 4.91 18.26C5.67 17.28 6.49 16.24 7.37 15.14C8.27 14.02 9.2 12.9 10.16 11.78C11.12 10.64 12.07 9.55 13.01 8.51C13.97 7.45 14.88 6.49 15.74 5.63C18.86 2.53 21.13 0.979999 22.55 0.979999C22.71 0.979999 22.86 1.01 23 1.07C23.16 1.11 23.24 1.25 23.24 1.49C23.24 1.81 23.09 1.97 22.79 1.97C22.71 1.97 22.64 1.96 22.58 1.94C22.52 1.92 22.45 1.91 22.37 1.91C21.31 1.91 19.26 3.43 16.22 6.47C15.18 7.51 14.24 8.5 13.4 9.44C12.56 10.36 11.73 11.31 10.91 12.29C10.11 13.27 9.25 14.36 8.33 15.56C7.41 16.74 6.34 18.11 5.12 19.67C4.14 20.91 3.3 21.95 2.6 22.79C1.9 23.63 1.42 24.05 1.16 24.05ZM14.423 23.54C13.583 23.54 12.923 23.25 12.443 22.67C11.963 22.09 11.723 21.38 11.723 20.54C11.723 19.1 12.203 17.62 13.163 16.1C13.423 15.68 13.723 15.27 14.063 14.87C14.403 14.45 14.773 14.05 15.173 13.67C15.773 13.09 16.403 12.61 17.063 12.23C17.723 11.85 18.363 11.66 18.983 11.66C20.003 11.66 20.513 12.14 20.513 13.1C20.513 14.3 19.813 15.39 18.413 16.37C17.113 17.25 15.833 17.69 14.573 17.69C14.353 17.69 14.153 17.68 13.973 17.66C13.813 17.62 13.663 17.58 13.523 17.54C13.323 17.92 13.143 18.41 12.983 19.01C12.823 19.61 12.743 20.13 12.743 20.57C12.743 21.89 13.323 22.55 14.483 22.55C15.423 22.55 16.313 22.39 17.153 22.07C17.993 21.73 18.993 21.1 20.153 20.18C20.873 19.62 21.413 19.17 21.773 18.83C22.133 18.49 22.523 18.13 22.943 17.75C23.063 17.67 23.173 17.63 23.273 17.63C23.373 17.63 23.473 17.66 23.573 17.72C23.673 17.78 23.723 17.87 23.723 17.99C23.723 18.21 23.523 18.52 23.123 18.92C22.783 19.24 22.423 19.58 22.043 19.94C21.663 20.28 21.063 20.76 20.243 21.38C19.363 22.06 18.403 22.59 17.363 22.97C16.323 23.35 15.343 23.54 14.423 23.54ZM14.393 16.73C15.033 16.73 15.643 16.63 16.223 16.43C16.803 16.23 17.353 15.94 17.873 15.56C19.033 14.7 19.613 13.89 19.613 13.13C19.613 12.79 19.403 12.62 18.983 12.62C18.183 12.62 17.253 13.11 16.193 14.09C15.673 14.57 15.243 15.01 14.903 15.41C14.583 15.79 14.283 16.21 14.003 16.67C14.123 16.71 14.253 16.73 14.393 16.73ZM31.6599 25.67C31.4999 25.67 31.2999 25.59 31.0599 25.43C30.8399 25.29 30.6699 25.15 30.5499 25.01C30.3099 24.71 30.1499 24.35 30.0699 23.93C29.9899 23.51 29.9499 23.05 29.9499 22.55C29.9499 22.13 29.9599 21.68 29.9799 21.2C30.0199 20.7 30.0799 20.17 30.1599 19.61C29.6399 20.21 29.0499 20.8 28.3899 21.38C27.7499 21.94 27.0899 22.4 26.4099 22.76C25.7499 23.12 25.1199 23.3 24.5199 23.3C23.0199 23.3 22.2699 22.5 22.2699 20.9C22.2699 19.24 22.8499 17.64 24.0099 16.1C24.5899 15.34 25.2499 14.61 25.9899 13.91C26.7299 13.21 27.5099 12.64 28.3299 12.2C29.1499 11.76 29.9599 11.54 30.7599 11.54C31.3599 11.54 31.8899 11.77 32.3499 12.23C32.3899 12.15 32.4399 12.02 32.4999 11.84C32.5799 11.66 32.6899 11.43 32.8299 11.15C33.3099 10.11 33.8399 9.03 34.4199 7.91C34.9999 6.77 35.5199 5.83 35.9799 5.09C36.4999 4.27 36.9899 3.86 37.4499 3.86C37.7699 3.86 37.9299 4.11 37.9299 4.61C37.9299 5.47 37.1199 7.48 35.4999 10.64C35.3999 10.82 35.2199 11.15 34.9599 11.63C34.7199 12.09 34.4299 12.63 34.0899 13.25C33.7699 13.85 33.4399 14.45 33.0999 15.05C32.7599 15.65 32.4499 16.19 32.1699 16.67C31.9099 17.13 31.7199 17.45 31.5999 17.63C31.3799 18.53 31.2099 19.39 31.0899 20.21C30.9699 21.01 30.9099 21.84 30.9099 22.7C30.9099 23.02 30.9199 23.31 30.9399 23.57C30.9799 23.85 31.0599 24.07 31.1799 24.23C31.2799 24.35 31.3899 24.44 31.5099 24.5C31.6299 24.58 31.7699 24.65 31.9299 24.71C32.1699 24.77 32.2899 24.91 32.2899 25.13C32.2899 25.49 32.0799 25.67 31.6599 25.67ZM33.0699 13.13C33.8299 11.83 34.4999 10.62 35.0799 9.5C35.6599 8.36 36.1299 7.29 36.4899 6.29C35.6899 7.33 35.0199 8.43 34.4799 9.59C33.9399 10.75 33.4699 11.93 33.0699 13.13ZM24.3099 22.4C24.8899 22.4 25.4999 22.21 26.1399 21.83C26.7999 21.43 27.4199 20.96 27.9999 20.42C28.5199 19.94 28.9999 19.45 29.4399 18.95C29.8799 18.43 30.2899 17.9 30.6699 17.36C30.8299 16.66 31.0099 15.97 31.2099 15.29C31.4299 14.61 31.6699 13.93 31.9299 13.25C31.6099 12.75 31.1599 12.5 30.5799 12.5C29.9799 12.5 29.3099 12.73 28.5699 13.19C27.8499 13.63 27.1499 14.18 26.4699 14.84C25.8099 15.5 25.2399 16.13 24.7599 16.73C23.7599 18.07 23.2599 19.49 23.2599 20.99C23.2599 21.93 23.6099 22.4 24.3099 22.4ZM35.799 23.3C34.639 23.3 34.059 22.75 34.059 21.65C34.059 20.93 34.229 20.16 34.569 19.34C34.929 18.5 35.409 17.69 36.009 16.91C36.609 16.11 37.279 15.39 38.019 14.75C38.759 14.09 39.519 13.57 40.299 13.19C41.079 12.79 41.829 12.59 42.549 12.59C43.829 12.59 44.469 13.22 44.469 14.48C44.469 15.3 44.269 15.71 43.869 15.71C43.509 15.71 43.329 15.54 43.329 15.2C43.329 15.06 43.359 14.92 43.419 14.78C43.499 14.62 43.539 14.45 43.539 14.27C43.539 13.71 43.159 13.43 42.399 13.43C41.179 13.43 39.649 14.36 37.809 16.22C37.369 16.68 36.939 17.22 36.519 17.84C36.099 18.46 35.749 19.09 35.469 19.73C35.209 20.35 35.079 20.94 35.079 21.5C35.079 22.04 35.379 22.31 35.979 22.31C36.499 22.31 37.049 22.15 37.629 21.83C38.229 21.51 38.749 21.18 39.189 20.84C40.069 20.18 40.969 19.28 41.889 18.14C42.029 17.98 42.209 17.77 42.429 17.51C42.649 17.25 42.899 16.96 43.179 16.64C43.279 16.54 43.399 16.49 43.539 16.49C43.859 16.49 44.019 16.65 44.019 16.97L42.879 18.68C42.119 19.8 41.739 20.72 41.739 21.44C41.739 21.96 41.989 22.22 42.489 22.22C42.909 22.22 43.369 22.11 43.869 21.89C44.369 21.67 44.779 21.45 45.099 21.23C45.739 20.81 46.409 20.29 47.109 19.67C47.809 19.03 48.479 18.39 49.119 17.75C49.199 17.67 49.319 17.63 49.479 17.63C49.779 17.63 49.929 17.75 49.929 17.99C49.929 18.21 49.789 18.46 49.509 18.74C48.709 19.54 47.989 20.23 47.349 20.81C46.709 21.37 46.099 21.83 45.519 22.19C45.139 22.41 44.669 22.64 44.109 22.88C43.549 23.12 42.909 23.24 42.189 23.24C41.209 23.24 40.719 22.72 40.719 21.68C40.719 21.28 40.769 20.95 40.869 20.69C39.049 22.43 37.359 23.3 35.799 23.3ZM47.082 23.75C46.762 23.75 46.602 23.62 46.602 23.36C46.602 23.26 46.642 23.14 46.722 23C46.802 22.84 46.872 22.71 46.932 22.61L49.632 17.18C50.792 14.82 51.372 13.51 51.372 13.25C51.372 12.97 51.512 12.83 51.792 12.83C52.172 12.83 52.362 13.03 52.362 13.43C52.362 13.57 52.272 13.87 52.092 14.33C51.912 14.79 51.682 15.31 51.402 15.89C50.922 16.93 50.522 17.73 50.202 18.29C50.802 17.59 51.412 16.93 52.032 16.31C52.652 15.69 53.282 15.1 53.922 14.54C55.822 12.88 57.282 12.05 58.302 12.05C59.002 12.05 59.352 12.38 59.352 13.04C59.352 13.64 58.842 14.99 57.822 17.09C56.802 19.21 56.292 20.55 56.292 21.11C56.292 21.37 56.382 21.5 56.562 21.5C56.622 21.5 56.712 21.48 56.832 21.44C56.972 21.38 57.112 21.35 57.252 21.35C57.592 21.35 57.762 21.51 57.762 21.83C57.762 22.23 57.332 22.43 56.472 22.43C56.072 22.43 55.782 22.34 55.602 22.16C55.422 21.96 55.332 21.7 55.332 21.38C55.332 20.42 55.822 18.96 56.802 17C57.782 15.06 58.272 13.89 58.272 13.49C58.272 13.25 58.182 13.13 58.002 13.13C57.562 13.13 56.852 13.5 55.872 14.24C54.812 15.04 53.752 15.96 52.692 17C51.632 18.04 50.622 19.23 49.662 20.57L47.562 23.48C47.442 23.66 47.282 23.75 47.082 23.75ZM60.0859 25.07C59.7059 25.07 59.5159 24.77 59.5159 24.17C59.5159 23.29 60.0059 21.75 60.9859 19.55C61.9859 17.35 63.4659 14.47 65.4259 10.91C64.6659 10.91 63.9459 11.01 63.2659 11.21C62.6059 11.39 62.2559 11.62 62.2159 11.9C62.1959 11.98 62.1459 12.06 62.0659 12.14C62.0059 12.2 61.9059 12.23 61.7659 12.23C61.4459 12.23 61.2859 12.07 61.2859 11.75C61.2859 11.23 61.6959 10.8 62.5159 10.46C63.3359 10.12 64.4859 9.95 65.9659 9.95L68.0359 6.53C68.1759 6.31 68.3259 6.07 68.4859 5.81C68.6459 5.53 68.8259 5.23 69.0259 4.91C69.2259 4.63 69.4559 4.49 69.7159 4.49C69.8759 4.49 69.9959 4.54 70.0759 4.64C70.1559 4.72 70.1959 4.81 70.1959 4.91C70.1959 5.21 69.7559 6.01 68.8759 7.31C67.7759 8.93 67.1859 9.81 67.1059 9.95C67.4059 9.95 67.8559 9.98 68.4559 10.04C69.0559 10.08 69.7659 10.15 70.5859 10.25C70.8859 10.27 71.0359 10.42 71.0359 10.7C71.0359 11.02 70.8559 11.18 70.4959 11.18C70.3559 11.18 70.0759 11.16 69.6559 11.12C69.2359 11.06 68.7859 11.01 68.3059 10.97C67.8259 10.93 67.4159 10.92 67.0759 10.94L66.6259 10.97C62.5659 18.11 60.5459 22.55 60.5659 24.29L60.5959 24.53V24.59C60.5959 24.91 60.4259 25.07 60.0859 25.07ZM75.0467 24.29C74.9067 24.29 74.7567 24.22 74.5967 24.08C74.4367 23.96 74.3567 23.83 74.3567 23.69C74.3567 23.41 74.4667 22.96 74.6867 22.34C74.9267 21.72 75.2367 21.01 75.6167 20.21C75.9967 19.41 76.4067 18.62 76.8467 17.84L80.1767 11.96C82.7367 7.4 84.0967 4.62 84.2567 3.62C84.2767 3.3 84.4167 3.14 84.6767 3.14C84.8967 3.14 85.0467 3.23 85.1267 3.41C85.2067 3.57 85.2467 3.74 85.2467 3.92C85.2467 4.32 85.1067 4.89 84.8267 5.63C84.5667 6.37 84.1367 7.27 83.5367 8.33L81.0767 12.62C80.0567 14.4 79.2467 15.81 78.6467 16.85C78.0667 17.87 77.6067 18.69 77.2667 19.31C76.7667 20.27 76.3267 21.18 75.9467 22.04C75.5667 22.9 75.3567 23.54 75.3167 23.96C75.3167 24.18 75.2267 24.29 75.0467 24.29ZM88.9967 23.51C88.6567 23.51 88.4867 23.4 88.4867 23.18C88.4867 23.08 88.5867 22.9 88.7867 22.64C89.0067 22.38 89.2167 22.09 89.4167 21.77C89.8767 21.03 90.3067 20.19 90.7067 19.25C91.1267 18.31 91.3367 17.44 91.3367 16.64C91.3367 15.88 91.1167 15.27 90.6767 14.81C90.2567 14.33 89.6867 13.98 88.9667 13.76C88.2667 13.52 87.4867 13.4 86.6267 13.4C85.8067 13.4 84.6767 13.63 83.2367 14.09C81.7967 14.55 80.9667 14.78 80.7467 14.78C80.4267 14.78 80.2667 14.61 80.2667 14.27C80.2667 14.23 80.3167 14.12 80.4167 13.94C80.5167 13.74 80.6367 13.54 80.7767 13.34C80.9167 13.14 81.0267 13.03 81.1067 13.01L81.8267 12.89L84.4667 11.84C85.5867 11.38 86.7067 10.91 87.8267 10.43C88.9667 9.93 90.0867 9.42 91.1867 8.9C92.7667 8.16 94.2367 7.41 95.5967 6.65C96.9767 5.87 98.2167 5.12 99.3167 4.4C99.5167 4.26 99.6567 4.18 99.7367 4.16C99.8367 4.12 99.9267 4.1 100.007 4.1C100.327 4.1 100.487 4.25 100.487 4.55C100.487 4.73 100.337 4.95 100.037 5.21C98.7367 6.29 95.9467 7.83 91.6667 9.83C90.9267 10.11 89.9367 10.5 88.6967 11C87.4767 11.5 86.1267 12.05 84.6467 12.65C85.1267 12.53 85.6067 12.47 86.0867 12.47C87.2067 12.47 88.2567 12.61 89.2367 12.89C90.2167 13.15 91.0067 13.58 91.6067 14.18C92.2267 14.76 92.5367 15.54 92.5367 16.52C92.5367 17.3 92.3567 18.14 91.9967 19.04C91.6567 19.94 91.1967 20.85 90.6167 21.77L89.8067 23.03C89.6067 23.35 89.3367 23.51 88.9967 23.51ZM96.0826 23.54C95.7626 23.54 95.6026 23.38 95.6026 23.06C95.6026 22.64 95.7526 21.98 96.0526 21.08C96.3526 20.16 96.7426 19.11 97.2226 17.93C97.7226 16.73 98.2526 15.5 98.8126 14.24C99.1326 13.54 99.4626 12.86 99.8026 12.2C100.143 11.52 100.463 10.93 100.763 10.43C103.723 5.43 105.563 2.93 106.283 2.93C106.563 2.93 106.703 3.07 106.703 3.35C106.703 3.53 106.563 3.87 106.283 4.37C106.023 4.85 105.673 5.42 105.233 6.08C104.813 6.72 104.353 7.37 103.853 8.03C103.373 8.69 102.913 9.3 102.473 9.86C102.053 10.4 101.713 10.81 101.453 11.09C101.233 11.35 100.983 11.73 100.703 12.23C100.443 12.73 100.183 13.25 99.9226 13.79C99.6626 14.31 99.4526 14.77 99.2926 15.17L98.1526 17.99C98.4526 17.59 98.8426 17.14 99.3226 16.64C100.463 15.38 101.643 14.43 102.863 13.79C104.103 13.13 105.143 12.8 105.983 12.8C106.443 12.8 106.813 12.94 107.093 13.22C107.373 13.5 107.513 13.84 107.513 14.24C107.513 15.02 107.003 16.33 105.983 18.17C104.963 19.99 104.453 21.11 104.453 21.53C104.453 21.75 104.573 21.86 104.813 21.86C105.373 21.86 105.983 21.66 106.643 21.26C107.303 20.84 107.983 20.31 108.683 19.67C109.383 19.03 110.063 18.39 110.723 17.75C110.803 17.67 110.923 17.63 111.083 17.63C111.383 17.63 111.533 17.75 111.533 17.99C111.533 18.21 111.393 18.46 111.113 18.74C109.773 20.08 108.623 21.08 107.663 21.74C106.703 22.4 105.693 22.73 104.633 22.73C103.833 22.73 103.433 22.36 103.433 21.62C103.433 21.34 103.483 21.07 103.583 20.81C103.683 20.55 103.843 20.2 104.063 19.76L105.443 17.03C105.783 16.35 106.033 15.78 106.193 15.32C106.353 14.86 106.433 14.51 106.433 14.27C106.433 13.93 106.223 13.76 105.803 13.76C105.063 13.76 104.193 14.06 103.193 14.66C102.213 15.24 101.163 16.12 100.043 17.3C99.4026 17.98 98.8226 18.7 98.3026 19.46C97.8026 20.22 97.4026 21.04 97.1026 21.92L96.7426 22.97C96.6026 23.35 96.3826 23.54 96.0826 23.54ZM111.033 23.3C109.873 23.3 109.293 22.75 109.293 21.65C109.293 20.93 109.463 20.16 109.803 19.34C110.163 18.5 110.643 17.69 111.243 16.91C111.843 16.11 112.513 15.39 113.253 14.75C113.993 14.09 114.753 13.57 115.533 13.19C116.313 12.79 117.063 12.59 117.783 12.59C119.063 12.59 119.703 13.22 119.703 14.48C119.703 15.3 119.503 15.71 119.103 15.71C118.743 15.71 118.563 15.54 118.563 15.2C118.563 15.06 118.593 14.92 118.653 14.78C118.733 14.62 118.773 14.45 118.773 14.27C118.773 13.71 118.393 13.43 117.633 13.43C116.413 13.43 114.883 14.36 113.043 16.22C112.603 16.68 112.173 17.22 111.753 17.84C111.333 18.46 110.983 19.09 110.703 19.73C110.443 20.35 110.313 20.94 110.313 21.5C110.313 22.04 110.613 22.31 111.213 22.31C111.733 22.31 112.283 22.15 112.863 21.83C113.463 21.51 113.983 21.18 114.423 20.84C115.303 20.18 116.203 19.28 117.123 18.14C117.263 17.98 117.443 17.77 117.663 17.51C117.883 17.25 118.133 16.96 118.413 16.64C118.513 16.54 118.633 16.49 118.773 16.49C119.093 16.49 119.253 16.65 119.253 16.97L118.113 18.68C117.353 19.8 116.973 20.72 116.973 21.44C116.973 21.96 117.223 22.22 117.723 22.22C118.143 22.22 118.603 22.11 119.103 21.89C119.603 21.67 120.013 21.45 120.333 21.23C120.973 20.81 121.643 20.29 122.343 19.67C123.043 19.03 123.713 18.39 124.353 17.75C124.433 17.67 124.553 17.63 124.713 17.63C125.013 17.63 125.163 17.75 125.163 17.99C125.163 18.21 125.023 18.46 124.743 18.74C123.943 19.54 123.223 20.23 122.583 20.81C121.943 21.37 121.333 21.83 120.753 22.19C120.373 22.41 119.903 22.64 119.343 22.88C118.783 23.12 118.143 23.24 117.423 23.24C116.443 23.24 115.953 22.72 115.953 21.68C115.953 21.28 116.003 20.95 116.103 20.69C114.283 22.43 112.593 23.3 111.033 23.3ZM122.316 23.75C121.996 23.75 121.836 23.62 121.836 23.36C121.836 23.26 121.876 23.14 121.956 23C122.036 22.84 122.106 22.71 122.166 22.61L124.866 17.18C126.026 14.82 126.606 13.51 126.606 13.25C126.606 12.97 126.746 12.83 127.026 12.83C127.406 12.83 127.596 13.03 127.596 13.43C127.596 13.57 127.506 13.87 127.326 14.33C127.146 14.79 126.916 15.31 126.636 15.89C126.156 16.93 125.756 17.73 125.436 18.29C126.036 17.59 126.646 16.93 127.266 16.31C127.886 15.69 128.516 15.1 129.156 14.54C131.056 12.88 132.516 12.05 133.536 12.05C134.236 12.05 134.586 12.38 134.586 13.04C134.586 13.64 134.076 14.99 133.056 17.09C132.036 19.21 131.526 20.55 131.526 21.11C131.526 21.37 131.616 21.5 131.796 21.5C131.856 21.5 131.946 21.48 132.066 21.44C132.206 21.38 132.346 21.35 132.486 21.35C132.826 21.35 132.996 21.51 132.996 21.83C132.996 22.23 132.566 22.43 131.706 22.43C131.306 22.43 131.016 22.34 130.836 22.16C130.656 21.96 130.566 21.7 130.566 21.38C130.566 20.42 131.056 18.96 132.036 17C133.016 15.06 133.506 13.89 133.506 13.49C133.506 13.25 133.416 13.13 133.236 13.13C132.796 13.13 132.086 13.5 131.106 14.24C130.046 15.04 128.986 15.96 127.926 17C126.866 18.04 125.856 19.23 124.896 20.57L122.796 23.48C122.676 23.66 122.516 23.75 122.316 23.75ZM134.24 23.75C133.92 23.75 133.76 23.62 133.76 23.36C133.76 23.26 133.8 23.14 133.88 23C133.96 22.84 134.03 22.71 134.09 22.61L136.79 17.18C137.95 14.82 138.53 13.51 138.53 13.25C138.53 12.97 138.67 12.83 138.95 12.83C139.33 12.83 139.52 13.03 139.52 13.43C139.52 13.57 139.43 13.87 139.25 14.33C139.07 14.79 138.84 15.31 138.56 15.89C138.08 16.93 137.68 17.73 137.36 18.29C137.96 17.59 138.57 16.93 139.19 16.31C139.81 15.69 140.44 15.1 141.08 14.54C142.98 12.88 144.44 12.05 145.46 12.05C146.16 12.05 146.51 12.38 146.51 13.04C146.51 13.64 146 14.99 144.98 17.09C143.96 19.21 143.45 20.55 143.45 21.11C143.45 21.37 143.54 21.5 143.72 21.5C143.78 21.5 143.87 21.48 143.99 21.44C144.13 21.38 144.27 21.35 144.41 21.35C144.75 21.35 144.92 21.51 144.92 21.83C144.92 22.23 144.49 22.43 143.63 22.43C143.23 22.43 142.94 22.34 142.76 22.16C142.58 21.96 142.49 21.7 142.49 21.38C142.49 20.42 142.98 18.96 143.96 17C144.94 15.06 145.43 13.89 145.43 13.49C145.43 13.25 145.34 13.13 145.16 13.13C144.72 13.13 144.01 13.5 143.03 14.24C141.97 15.04 140.91 15.96 139.85 17C138.79 18.04 137.78 19.23 136.82 20.57L134.72 23.48C134.6 23.66 134.44 23.75 134.24 23.75ZM148.504 23.3C147.344 23.3 146.764 22.75 146.764 21.65C146.764 20.93 146.934 20.16 147.274 19.34C147.634 18.5 148.114 17.69 148.714 16.91C149.314 16.11 149.984 15.39 150.724 14.75C151.464 14.09 152.224 13.57 153.004 13.19C153.784 12.79 154.534 12.59 155.254 12.59C156.534 12.59 157.174 13.22 157.174 14.48C157.174 15.3 156.974 15.71 156.574 15.71C156.214 15.71 156.034 15.54 156.034 15.2C156.034 15.06 156.064 14.92 156.124 14.78C156.204 14.62 156.244 14.45 156.244 14.27C156.244 13.71 155.864 13.43 155.104 13.43C153.884 13.43 152.354 14.36 150.514 16.22C150.074 16.68 149.644 17.22 149.224 17.84C148.804 18.46 148.454 19.09 148.174 19.73C147.914 20.35 147.784 20.94 147.784 21.5C147.784 22.04 148.084 22.31 148.684 22.31C149.204 22.31 149.754 22.15 150.334 21.83C150.934 21.51 151.454 21.18 151.894 20.84C152.774 20.18 153.674 19.28 154.594 18.14C154.734 17.98 154.914 17.77 155.134 17.51C155.354 17.25 155.604 16.96 155.884 16.64C155.984 16.54 156.104 16.49 156.244 16.49C156.564 16.49 156.724 16.65 156.724 16.97L155.584 18.68C154.824 19.8 154.444 20.72 154.444 21.44C154.444 21.96 154.694 22.22 155.194 22.22C155.614 22.22 156.074 22.11 156.574 21.89C157.074 21.67 157.484 21.45 157.804 21.23C158.444 20.81 159.114 20.29 159.814 19.67C160.514 19.03 161.184 18.39 161.824 17.75C161.904 17.67 162.024 17.63 162.184 17.63C162.484 17.63 162.634 17.75 162.634 17.99C162.634 18.21 162.494 18.46 162.214 18.74C161.414 19.54 160.694 20.23 160.054 20.81C159.414 21.37 158.804 21.83 158.224 22.19C157.844 22.41 157.374 22.64 156.814 22.88C156.254 23.12 155.614 23.24 154.894 23.24C153.914 23.24 153.424 22.72 153.424 21.68C153.424 21.28 153.474 20.95 153.574 20.69C151.754 22.43 150.064 23.3 148.504 23.3Z" fill="white"/>
</svg>
